<svg xmlns="http://www.w3.org/2000/svg" xmlns:xlink="http://www.w3.org/1999/xlink" version="1.1" x="0px" y="0px" viewBox="0 0 90 90" enable-background="new 0 0 90 90" xml:space="preserve"><g><path fill-rule="evenodd" clip-rule="evenodd" d="M53.55,53.35c-3.953,1.863-7.062,1.271-12.601,1.643   c0.692,11.461,2.788,18.496,4.383,28.489c-1.048,1.818-2.749,2.138-3.287,5.478c-1.973,0.191-2.641,0.838-4.383,0   c0.258-2.847,1.994-4.216,3.287-6.026c0.343-11.483-5.422-16.855-8.217-25.199c-3.397,8.288-6.858,16.515-8.765,26.295   c-3.271,0.497-3.685,5.761-8.218,3.286c-0.026-2.765,1.992-3.486,3.835-4.382c2.689-4.087,3.119-7.807,3.287-13.146   c0.121-3.857,2.412-8.333,1.644-14.794c-0.299-2.513-1.184-6.046-2.191-8.217c-0.781-1.683-2.965-2.836-3.835-4.931   c-2.357-5.674-0.428-11.53-1.096-18.625c-2.816-1.566-8.75-0.016-9.861-3.288c-0.699-3.803,2.366-3.843,3.834-5.479   c-0.625-1.605-0.323-2.034,1.097-2.739c-1.899-2.695-4.548-6.848-2.74-11.504c4.208,2.183,6.58,6.204,9.861,9.313   c2.058-1.959,2.633-5.403,4.931-7.123c5.158,2.277,1.93,6.81,1.096,12.052c-0.208,1.304-1.081,1.919-1.096,2.74   c-0.105,5.575,2.903,8.831,4.931,13.148c5.92,1.879,14.414,1.835,21.913,0c3.493-0.855,4.754-2.729,10.408-2.192   c5.465,0.52,13.638,4.341,14.244,8.766c0.19,1.389-0.786,1.068-1.095,2.191c-0.335,1.218-0.061,3.481-0.549,5.479   c-1.088,4.446-3.373,6.434-1.095,10.958c1.244,2.472,3.094,2.472,6.026,4.931c0.052,8.71,2.164,15.367,2.738,23.556   c-3.696-0.957-2.656,7.384-8.217,4.384c0.002-3.649,3.179-4.125,4.383-6.574c0.361-13.875-6.398-20.632-14.793-25.748   c-0.184,4.202,1.502,6.533,3.287,8.765c-3.221,5.728-10.802,7.092-12.601,14.244c-1.044,0.232-0.991,1.565-2.738,1.096   c0.668,4.241-1.454,6.363-4.931,4.931c1.542-2.673,1.418-5.423,3.286-8.219c3.28-4.902,10.056-7.485,9.862-12.601   C59.41,59.974,53.969,58.668,53.55,53.35z"/></g></svg>