<?xml version="1.0" encoding="UTF-8" standalone="no"?>
<!DOCTYPE svg PUBLIC "-//W3C//DTD SVG 1.1//EN" "http://www.w3.org/Graphics/SVG/1.1/DTD/svg11.dtd">
<svg width="100%" height="100%" viewBox="0 0 177 93" version="1.1" xmlns="http://www.w3.org/2000/svg" xmlns:xlink="http://www.w3.org/1999/xlink" xml:space="preserve" xmlns:serif="http://www.serif.com/" style="fill-rule:evenodd;clip-rule:evenodd;stroke-linejoin:round;stroke-miterlimit:1.41421;">
    <g>
        <path d="M18.167,29.422L23.494,29.422L20.889,18.067L20.811,18.067L18.167,29.422ZM10.506,40.078L17.467,12L24.35,12L31.117,40.078L25.983,40.078L24.622,34.167L17.194,34.167L15.678,40.078L10.506,40.078Z" style="fill-rule:nonzero;"/>
        <path d="M33.956,40.078L33.956,18.922L38.739,18.922L38.739,21.722L38.817,21.722C39.387,20.659 40.061,19.862 40.839,19.331C41.617,18.799 42.628,18.533 43.872,18.533L43.872,23.822C43.457,23.693 43.03,23.569 42.589,23.453C42.148,23.336 41.707,23.278 41.267,23.278C40.463,23.278 39.86,23.524 39.458,24.017C39.056,24.509 38.856,25.041 38.856,25.611L38.856,40.078L33.956,40.078Z" style="fill-rule:nonzero;"/>
        <path d="M46.906,40.078L46.906,12L51.806,12L51.806,21.333C52.635,20.556 53.478,19.894 54.333,19.35C55.189,18.806 56.122,18.533 57.133,18.533C58.637,18.533 59.771,18.948 60.536,19.778C61.301,20.607 61.683,22.007 61.683,23.978L61.683,40.078L56.783,40.078L56.783,24.522C56.783,23.822 56.654,23.258 56.394,22.831C56.135,22.403 55.669,22.189 54.994,22.189C54.476,22.189 53.944,22.39 53.4,22.792C52.856,23.194 52.324,23.628 51.806,24.094L51.806,40.078L46.906,40.078Z" style="fill-rule:nonzero;"/>
        <path d="M66.972,15.267L66.972,10.833L71.872,10.833L71.872,15.267L66.972,15.267ZM71.872,18.922L71.872,40.078L66.972,40.078L66.972,18.922L71.872,18.922Z" style="fill-rule:nonzero;"/>
        <path d="M86.844,29.733C86.119,29.993 85.406,30.284 84.706,30.608C84.006,30.932 83.377,31.302 82.819,31.717C82.262,32.131 81.815,32.579 81.478,33.058C81.141,33.538 80.972,34.05 80.972,34.594C80.972,35.294 81.167,35.839 81.556,36.228C81.944,36.617 82.476,36.811 83.15,36.811C83.902,36.811 84.556,36.636 85.114,36.286C85.671,35.936 86.248,35.463 86.844,34.867L86.844,29.733ZM76.694,25.106C76.772,23.939 77.044,22.934 77.511,22.092C77.978,21.249 78.568,20.569 79.281,20.05C79.994,19.531 80.804,19.149 81.711,18.903C82.619,18.656 83.565,18.533 84.55,18.533C85.846,18.533 86.955,18.689 87.875,19C88.795,19.311 89.541,19.752 90.111,20.322C90.681,20.893 91.096,21.573 91.356,22.364C91.615,23.155 91.744,24.017 91.744,24.95L91.744,38.367C91.744,38.652 91.77,38.937 91.822,39.222C91.874,39.507 91.939,39.793 92.017,40.078L87.117,40.078C87.065,39.793 87.013,39.488 86.961,39.164C86.909,38.84 86.844,38.457 86.767,38.017C86.041,38.743 85.198,39.332 84.239,39.786C83.28,40.24 82.178,40.467 80.933,40.467C79.456,40.467 78.276,40.052 77.394,39.222C76.513,38.393 76.072,37.122 76.072,35.411C76.072,34.193 76.344,33.13 76.889,32.222C77.433,31.315 78.192,30.524 79.164,29.85C80.136,29.176 81.277,28.58 82.586,28.061C83.895,27.543 85.315,27.05 86.844,26.583L86.844,25.028C86.844,24.12 86.598,23.472 86.106,23.083C85.613,22.694 85.017,22.5 84.317,22.5C83.565,22.5 82.923,22.746 82.392,23.239C81.86,23.731 81.594,24.354 81.594,25.106L76.694,25.106Z" style="fill-rule:nonzero;"/>
        <path d="M12.411,78.967L12.411,50.889L17.778,50.889L17.778,62.478L17.856,62.478L24.817,50.889L30.689,50.889L23.456,62.206L31.506,78.967L25.478,78.967L19.878,67.183L17.778,70.372L17.778,78.967L12.411,78.967Z" style="fill-rule:nonzero;"/>
        <path d="M38.467,72.589C38.467,73.419 38.732,74.041 39.264,74.456C39.795,74.87 40.489,75.078 41.344,75.078C42.2,75.078 42.894,74.87 43.425,74.456C43.956,74.041 44.222,73.419 44.222,72.589L44.222,64.189C44.222,63.359 43.956,62.737 43.425,62.322C42.894,61.907 42.2,61.7 41.344,61.7C40.489,61.7 39.795,61.907 39.264,62.322C38.732,62.737 38.467,63.359 38.467,64.189L38.467,72.589ZM33.567,65.433C33.567,62.633 34.247,60.598 35.608,59.328C36.969,58.057 38.881,57.422 41.344,57.422C43.781,57.422 45.687,58.057 47.061,59.328C48.435,60.598 49.122,62.633 49.122,65.433L49.122,71.344C49.122,74.144 48.435,76.18 47.061,77.45C45.687,78.72 43.781,79.356 41.344,79.356C38.881,79.356 36.969,78.72 35.608,77.45C34.247,76.18 33.567,74.144 33.567,71.344L33.567,65.433Z" style="fill-rule:nonzero;"/>
        <path d="M53.4,78.967L53.4,50.889L58.3,50.889L58.3,60.222C59.13,59.444 59.972,58.783 60.828,58.239C61.683,57.694 62.617,57.422 63.628,57.422C65.131,57.422 66.266,57.837 67.031,58.667C67.795,59.496 68.178,60.896 68.178,62.867L68.178,78.967L63.278,78.967L63.278,63.411C63.278,62.711 63.148,62.147 62.889,61.719C62.63,61.292 62.163,61.078 61.489,61.078C60.97,61.078 60.439,61.279 59.894,61.681C59.35,62.082 58.819,62.517 58.3,62.983L58.3,78.967L53.4,78.967Z" style="fill-rule:nonzero;"/>
        <rect x="73.467" y="50.889" width="4.9" height="28.078" style="fill-rule:nonzero;"/>
        <path d="M83.656,57.811L88.4,57.811L88.4,60.222C89.204,59.496 90.02,58.848 90.85,58.278C91.68,57.707 92.613,57.422 93.65,57.422C94.557,57.422 95.335,57.707 95.983,58.278C96.631,58.848 97.098,59.626 97.383,60.611C98.135,59.781 98.926,59.043 99.756,58.394C100.585,57.746 101.531,57.422 102.594,57.422C104.072,57.422 105.187,57.876 105.939,58.783C106.691,59.691 107.067,61.104 107.067,63.022L107.067,78.967L102.167,78.967L102.167,62.867C102.167,62.167 102.05,61.694 101.817,61.447C101.583,61.201 101.272,61.078 100.883,61.078C100.65,61.078 100.391,61.136 100.106,61.253C99.82,61.369 99.529,61.525 99.231,61.719C98.932,61.914 98.66,62.121 98.414,62.342C98.168,62.562 97.967,62.776 97.811,62.983L97.811,78.967L92.911,78.967L92.911,62.867C92.911,62.167 92.788,61.694 92.542,61.447C92.295,61.201 91.978,61.078 91.589,61.078C91.33,61.078 91.051,61.136 90.753,61.253C90.455,61.369 90.169,61.525 89.897,61.719C89.625,61.914 89.372,62.121 89.139,62.342C88.906,62.562 88.711,62.776 88.556,62.983L88.556,78.967L83.656,78.967L83.656,57.811Z" style="fill-rule:nonzero;"/>
        <path d="M116.244,72.589C116.244,73.419 116.51,74.041 117.042,74.456C117.573,74.87 118.267,75.078 119.122,75.078C119.978,75.078 120.671,74.87 121.203,74.456C121.734,74.041 122,73.419 122,72.589L122,64.189C122,63.359 121.734,62.737 121.203,62.322C120.671,61.907 119.978,61.7 119.122,61.7C118.267,61.7 117.573,61.907 117.042,62.322C116.51,62.737 116.244,63.359 116.244,64.189L116.244,72.589ZM111.344,65.433C111.344,62.633 112.025,60.598 113.386,59.328C114.747,58.057 116.659,57.422 119.122,57.422C121.559,57.422 123.465,58.057 124.839,59.328C126.213,60.598 126.9,62.633 126.9,65.433L126.9,71.344C126.9,74.144 126.213,76.18 124.839,77.45C123.465,78.72 121.559,79.356 119.122,79.356C116.659,79.356 114.747,78.72 113.386,77.45C112.025,76.18 111.344,74.144 111.344,71.344L111.344,65.433Z" style="fill-rule:nonzero;"/>
        <path d="M135.689,72.589C135.689,73.419 135.955,74.041 136.486,74.456C137.018,74.87 137.711,75.078 138.567,75.078C139.422,75.078 140.116,74.87 140.647,74.456C141.179,74.041 141.444,73.419 141.444,72.589L141.444,64.189C141.444,63.359 141.179,62.737 140.647,62.322C140.116,61.907 139.422,61.7 138.567,61.7C137.711,61.7 137.018,61.907 136.486,62.322C135.955,62.737 135.689,63.359 135.689,64.189L135.689,72.589ZM130.789,65.433C130.789,62.633 131.469,60.598 132.831,59.328C134.192,58.057 136.104,57.422 138.567,57.422C141.004,57.422 142.909,58.057 144.283,59.328C145.657,60.598 146.344,62.633 146.344,65.433L146.344,71.344C146.344,74.144 145.657,76.18 144.283,77.45C142.909,78.72 141.004,79.356 138.567,79.356C136.104,79.356 134.192,78.72 132.831,77.45C131.469,76.18 130.789,74.144 130.789,71.344L130.789,65.433Z" style="fill-rule:nonzero;"/>
        <path d="M159.956,64.267C159.619,63.281 159.158,62.556 158.575,62.089C157.992,61.622 157.324,61.389 156.572,61.389C156.002,61.389 155.529,61.57 155.153,61.933C154.777,62.296 154.589,62.75 154.589,63.294C154.589,63.839 154.822,64.312 155.289,64.714C155.756,65.116 156.345,65.498 157.058,65.861C157.771,66.224 158.543,66.6 159.372,66.989C160.202,67.378 160.973,67.838 161.686,68.369C162.399,68.901 162.989,69.536 163.456,70.275C163.922,71.014 164.156,71.902 164.156,72.939C164.156,74.002 163.981,74.929 163.631,75.719C163.281,76.51 162.794,77.178 162.172,77.722C161.55,78.267 160.805,78.675 159.936,78.947C159.068,79.219 158.128,79.356 157.117,79.356C156.365,79.356 155.639,79.291 154.939,79.161C154.239,79.031 153.558,78.753 152.897,78.325C152.236,77.897 151.594,77.288 150.972,76.497C150.35,75.706 149.741,74.65 149.144,73.328L153.539,72.122C153.746,73.107 154.148,73.898 154.744,74.494C155.341,75.091 156.131,75.389 157.117,75.389C157.869,75.389 158.452,75.227 158.867,74.903C159.281,74.579 159.489,74.119 159.489,73.522C159.489,72.848 159.256,72.291 158.789,71.85C158.322,71.409 157.732,71.014 157.019,70.664C156.306,70.314 155.535,69.957 154.706,69.594C153.876,69.231 153.105,68.784 152.392,68.253C151.679,67.721 151.089,67.067 150.622,66.289C150.156,65.511 149.922,64.526 149.922,63.333C149.922,62.322 150.11,61.447 150.486,60.708C150.862,59.969 151.361,59.36 151.983,58.881C152.606,58.401 153.319,58.038 154.122,57.792C154.926,57.545 155.756,57.422 156.611,57.422C158.452,57.422 159.994,57.902 161.239,58.861C162.483,59.82 163.404,61.104 164,62.711L159.956,64.267Z" style="fill-rule:nonzero;"/>
    </g>
</svg>
